<svg width="168" height="42" viewBox="0 0 168 42" fill="none" xmlns="http://www.w3.org/2000/svg">
<path d="M17.6024 29.328C17.6024 29.8888 16.7579 29.9309 16.7292 29.3385C16.6354 27.4429 14.8943 25.8501 12.8796 25.9975C12.8692 25.9975 12.8587 25.9975 12.8483 25.9975C12.2879 25.9975 12.2541 25.1392 12.8431 25.1155C15.3713 25.0154 17.3339 26.7268 17.5998 29.2701L17.605 29.328H17.6024Z" fill="#231F20"/>
<mask id="mask0_3463_7808" style="mask-type:luminance" maskUnits="userSpaceOnUse" x="2" y="11" width="164" height="30">
<path d="M53.2497 19.2709V29.1756C53.2497 31.9848 53.0229 33.2749 52.4599 34.2227C51.7093 35.4364 50.3566 36.1578 48.665 36.1578C46.2593 36.1578 44.7189 35.1336 44.7189 29.5547V19.2709H39.7225V30.542C39.7225 37.9429 42.8032 40.7889 47.6511 40.7889C49.9004 40.7889 51.2923 40.1386 53.0307 38.838C53.9586 38.1456 55.0742 36.8239 55.0742 36.8239L58.2435 40.2571C58.2435 40.2571 58.2435 40.2571 58.2435 40.2597V19.2709H53.2471H53.2497ZM101.231 40.2966H106.227V19.2709H101.231V40.2966ZM151.985 40.2966H156.982V19.2709H151.985V40.2966ZM36.7929 18.776C34.6504 18.776 33.6 19.3841 32.2838 21.3193V19.2709H27.6991V40.2966H32.6956V28.6069C32.6956 25.3422 34.1604 23.7099 37.1656 23.6361V18.7786H36.7902L36.7929 18.776ZM61.7048 25.1895C61.7048 28.262 63.3573 30.0102 67.4911 31.4135C70.8351 32.5508 71.0227 32.8931 71.0227 34.1068C71.0227 35.3206 70.0453 36.1552 68.7682 36.1552C67.3034 36.1552 66.4772 35.3969 65.9872 33.6119H60.9516C61.4781 38.5089 64.4468 40.7837 68.5779 40.7837C72.7091 40.7837 76.0166 37.6348 76.0166 33.6119C76.0166 30.4999 74.5883 28.8307 70.2304 27.4642C66.8108 26.3637 66.6987 26.2874 66.6987 25.1869C66.6987 24.1627 67.5249 23.4018 68.6144 23.4018C69.7039 23.4018 70.3425 23.9705 70.5692 25.071H75.4536C75.266 21.1244 72.1487 18.7707 68.6144 18.7707C64.7439 18.7707 61.6996 21.5799 61.6996 25.1842M126.362 22.0327C124.934 19.7554 123.093 18.7681 120.237 18.7681C117.795 18.7681 116.291 19.45 114.826 21.235V19.263H110.241V40.2887H115.238V29.9286C115.238 24.9578 116.403 23.4018 119.296 23.4018C121.926 23.4018 123.354 24.6155 123.354 28.7543V40.2913H128.351V29.9312C128.351 24.9209 129.779 23.4044 132.56 23.4044C134.89 23.4044 136.467 24.5418 136.467 28.757V40.294H141.463V28.1488C141.463 21.8484 138.534 18.7733 133.047 18.7733C130.118 18.7733 128.051 19.7606 126.359 22.038M18.9077 12.2492V21.1297C17.4429 19.4973 15.0372 18.51 12.4074 18.51C6.58466 18.51 2 23.4439 2 29.7443C2 36.0446 6.54556 40.7889 12.4439 40.7889C15.0007 40.7889 16.9399 40.007 18.7644 38.1614L17.0885 36.3474C16.919 36.1578 16.9347 35.8656 17.1223 35.6944L17.396 35.4443L16.9477 34.9414C14.297 36.945 10.5203 36.6159 8.25536 34.0831C5.85487 31.3977 6.06338 27.2563 8.72191 24.8314C9.97298 23.6914 11.542 23.1333 13.1033 23.1438C13.1085 23.1438 13.1163 23.1438 13.1215 23.1438C13.9399 23.1438 14.714 23.3018 15.4178 23.5887C16.3326 23.9468 17.1797 24.5181 17.8808 25.3027C20.1458 27.8355 20.0884 31.6636 17.8443 34.1253L18.2926 34.6281C18.4959 34.4412 18.8634 34.0226 19.2127 34.4122L23.9042 39.4936V12.2492H18.9077ZM78.8002 12.2492V40.2966H83.7967V29.6311C83.7967 24.9999 85.3371 23.4071 88.1937 23.4071C91.0503 23.4071 92.2519 25.1526 92.2519 29.5547V40.294H97.2483V28.4147C97.2483 21.5062 94.092 18.7365 89.0955 18.7365C86.9531 18.7365 85.3006 19.3446 83.7967 20.7111V12.2492H78.8002ZM161.004 40.2966H166V12.2492H161.004V40.2966ZM101.267 16.2327H106.264V11.1855H101.267V16.2327ZM152.022 16.2327H157.018V11.1855H152.022V16.2327Z" fill="white"/>
</mask>
<g mask="url(#mask0_3463_7808)">
<path d="M166 11.1855H2V40.7889H166V11.1855Z" fill="url(#paint0_linear_3463_7808)"/>
</g>
<path d="M149.587 27.6738H144.591V32.7209H149.587V27.6738Z" fill="#F15822"/>
<path d="M59.8465 6.00994C61.3148 6.00994 62.049 6.72137 62.049 8.14425V10.8061C62.049 10.8634 62.0311 10.9116 61.9923 10.9508C61.9535 10.99 61.9057 11.0081 61.849 11.0081H61.4849C61.4282 11.0081 61.3805 10.99 61.3417 10.9508C61.3029 10.9116 61.285 10.8634 61.285 10.8061V8.18947C61.285 7.18562 60.7866 6.6852 59.7958 6.6852H59.1721C59.1154 7.05298 59.0736 7.35745 59.0467 7.59861C59.0199 7.83978 59.0109 8.11712 59.0169 8.4246L59.0348 10.8061C59.0348 10.8634 59.0169 10.9116 58.9781 10.9508C58.9393 10.99 58.8915 11.0081 58.8348 11.0081L57.6292 10.99C57.5724 10.99 57.5247 10.9719 57.4859 10.9327C57.4471 10.8935 57.4292 10.8453 57.4292 10.788V10.5258C57.4292 10.4685 57.4471 10.4202 57.4859 10.3811C57.5247 10.3419 57.5724 10.3238 57.6292 10.3238L58.2976 10.3328V8.46078C58.2917 8.093 58.2976 7.7825 58.3185 7.52928C58.3394 7.27605 58.3872 6.99268 58.4618 6.6852H57.9932C57.9365 6.6852 57.8888 6.66711 57.85 6.63395C57.8112 6.59778 57.7933 6.55256 57.7933 6.49528V6.21493C57.7933 6.15162 57.8112 6.10037 57.85 6.06721C57.8888 6.03104 57.9365 6.01596 57.9932 6.01596H59.8465V6.00994ZM63.3114 8.97627C63.2547 8.97627 63.2069 8.95818 63.1681 8.91899C63.1293 8.8798 63.1114 8.83157 63.1114 8.77429V6.2089C63.1114 6.14559 63.1293 6.09434 63.1681 6.06118C63.2069 6.02501 63.2547 6.00994 63.3114 6.00994H63.6934C63.7501 6.00994 63.7978 6.02802 63.8366 6.06721C63.8754 6.1064 63.8933 6.15463 63.8933 6.21191V8.77731C63.8933 8.83458 63.8754 8.88282 63.8366 8.92201C63.7978 8.9612 63.7501 8.97928 63.6934 8.97928H63.3114V8.97627ZM64.9826 11.0081C64.9259 11.0081 64.8781 10.99 64.8453 10.9508C64.8095 10.9116 64.7946 10.8634 64.7946 10.8061V10.5258C64.7946 10.4685 64.8125 10.4202 64.8453 10.3811C64.8811 10.3419 64.9259 10.3238 64.9826 10.3238H67.4865V8.18947C67.4865 7.19165 66.9881 6.69123 65.9973 6.69123H65.0691C65.0124 6.69123 64.9647 6.67314 64.9319 6.63395C64.8961 6.59476 64.8811 6.54653 64.8811 6.48925V6.2089C64.8811 6.15162 64.899 6.10339 64.9319 6.0642C64.9677 6.02501 65.0124 6.00692 65.0691 6.00692H66.0391C67.5193 6.00692 68.2564 6.72137 68.2564 8.15028V10.3208H68.5847C68.6414 10.3208 68.6892 10.3389 68.722 10.378C68.7578 10.4172 68.7727 10.4655 68.7727 10.5227V10.8031C68.7727 10.8604 68.7548 10.9086 68.722 10.9478C68.6862 10.987 68.6414 11.0051 68.5847 11.0051H64.9796L64.9826 11.0081ZM71.7601 6.00994C72.1182 6.00994 72.4375 6.09736 72.718 6.26919C72.9986 6.44102 73.2164 6.68821 73.3776 7.00776C73.5358 7.3273 73.6163 7.70714 73.6163 8.14425V10.8061C73.6163 10.8634 73.5984 10.9116 73.5596 10.9508C73.5208 10.99 73.4731 11.0081 73.4164 11.0081H71.1811C71.1244 11.0081 71.0766 10.99 71.0438 10.9508C71.008 10.9116 70.9931 10.8634 70.9931 10.8061V10.5258C70.9931 10.4685 71.011 10.4202 71.0438 10.3811C71.0796 10.3419 71.1244 10.3238 71.1811 10.3238H72.8523V8.1955C72.8523 7.75235 72.7419 7.39061 72.5181 7.11327C72.2943 6.83593 72.0137 6.69726 71.6735 6.69726H70.7543L70.0858 10.7941C70.0799 10.8513 70.056 10.9026 70.0112 10.9418C69.9665 10.984 69.9217 11.0021 69.868 11.0021H69.5039C69.4472 11.0021 69.4024 10.981 69.3696 10.9418C69.3368 10.8996 69.3248 10.8513 69.3308 10.7941L70.0232 6.69726H69.5815C69.5248 6.69726 69.477 6.67917 69.4382 6.63998C69.3994 6.60079 69.3815 6.55256 69.3815 6.49528V6.20588C69.3815 6.14861 69.3994 6.10037 69.4382 6.06118C69.477 6.02199 69.5248 6.00391 69.5815 6.00391H71.7571L71.7601 6.00994Z" fill="#231F20"/>
<path d="M40.6485 3.43174C40.2009 2.56958 39.4637 1.99681 39.4637 1.99681C38.9116 1.63204 38.264 1.46021 37.5716 1.46021C35.5363 1.46021 33.0951 2.9464 31.3911 5.43341C29.105 8.76752 29.0155 12.6322 31.1911 14.0671C32.8653 15.1735 35.3931 14.5163 37.509 12.6322C37.7716 13.2261 38.1655 13.7174 38.6938 14.0671C40.3083 15.1343 42.7197 14.5585 44.7878 12.8251C45.0475 13.3316 45.4115 13.7566 45.8801 14.0671C48.0557 15.5021 51.6697 13.9646 53.9528 10.6305C56.2388 7.29642 56.3283 3.43174 54.1527 1.99681C52.5382 0.929651 50.1268 1.50543 48.0587 3.23881C47.799 2.73236 47.4349 2.30731 46.9664 1.99681C46.4143 1.63204 45.7667 1.46021 45.0743 1.46021C43.6687 1.46021 42.0661 2.17165 40.6485 3.43174Z" fill="url(#paint1_linear_3463_7808)"/>
<path d="M40.6485 3.43174C40.2009 2.56958 39.4637 1.99681 39.4637 1.99681C38.9116 1.63204 38.264 1.46021 37.5716 1.46021C35.5363 1.46021 33.0951 2.9464 31.3911 5.43341C29.105 8.76752 29.0155 12.6322 31.1911 14.0671C32.8653 15.1735 35.3931 14.5163 37.509 12.6322C37.7716 13.2261 38.1655 13.7174 38.6938 14.0671C40.3083 15.1343 42.7197 14.5585 44.7878 12.8251C45.0475 13.3316 45.4115 13.7566 45.8801 14.0671C48.0557 15.5021 51.6697 13.9646 53.9528 10.6305C56.2388 7.29642 56.3283 3.43174 54.1527 1.99681C52.5382 0.929651 50.1268 1.50543 48.0587 3.23881C47.799 2.73236 47.4349 2.30731 46.9664 1.99681C46.4143 1.63204 45.7667 1.46021 45.0743 1.46021C43.6687 1.46021 42.0661 2.17165 40.6485 3.43174Z" fill="url(#paint2_linear_3463_7808)"/>
<path fill-rule="evenodd" clip-rule="evenodd" d="M45.9446 4.94195C45.9446 4.64652 46.1834 4.40536 46.4759 4.40536V4.40234C46.7683 4.40234 47.0071 4.64351 47.0071 4.93894V9.93407C47.0071 10.2295 46.7683 10.4707 46.4759 10.4707C46.2461 10.4707 46.0521 10.326 45.9775 10.121C45.6432 10.329 45.2493 10.4526 44.8285 10.4526C43.6258 10.4526 42.6499 9.46682 42.6499 8.25496C42.6499 7.0431 43.6288 6.05734 44.8285 6.05734C45.2374 6.05734 45.6194 6.16888 45.9446 6.36784V4.94195ZM43.7123 8.25195C43.7123 8.87295 44.2137 9.37939 44.8285 9.37939C45.4433 9.37939 45.9446 8.87295 45.9446 8.25195C45.9446 7.63094 45.4433 7.1245 44.8285 7.1245C44.2137 7.1245 43.7123 7.63094 43.7123 8.25195ZM47.9323 10.1189C48.0278 10.3299 48.2397 10.4685 48.4695 10.4685L48.4665 10.4716H51.2181C51.5434 10.4716 51.806 10.2063 51.806 9.87769C51.806 9.5491 51.5434 9.28382 51.2181 9.28382H49.7736L51.2121 7.64389C51.22 7.63586 51.228 7.62516 51.2359 7.61445L51.236 7.61443C51.2399 7.60906 51.2439 7.6037 51.2479 7.59868C51.4926 7.252 51.6239 6.84503 51.6239 6.41998C51.6239 5.31062 50.7286 4.40625 49.6304 4.40625C49.0992 4.40625 48.5978 4.61727 48.2218 4.9971C48.1084 5.10864 48.0487 5.25937 48.0487 5.41613C48.0487 5.57289 48.1113 5.72362 48.2218 5.83515C48.3322 5.94669 48.4814 6.01 48.6366 6.01C48.7918 6.01 48.941 5.94669 49.0514 5.83515C49.2066 5.6784 49.4125 5.59399 49.6304 5.59399C50.081 5.59399 50.4481 5.96478 50.4481 6.41998C50.4481 6.58578 50.4003 6.74254 50.3108 6.88121L48.0278 9.48278C47.8756 9.65461 47.8368 9.90482 47.9323 10.1189ZM36.9286 6.33837C37.0659 6.07912 37.3852 5.97662 37.6448 6.11529H37.6478C37.9045 6.25396 38.0059 6.57652 37.8687 6.83879L35.9497 10.5196C35.5886 11.219 34.8783 11.6711 34.0964 11.6983H34.0785C33.792 11.6983 33.5563 11.4692 33.5473 11.1798C33.5354 10.8843 33.7652 10.6341 34.0576 10.6251C34.4605 10.61 34.8246 10.3779 35.0097 10.0192L35.1977 9.66042L33.7144 6.83879C33.5772 6.57954 33.6756 6.25396 33.9353 6.11529C34.1919 5.97662 34.5143 6.0761 34.6515 6.33837L35.7945 8.51489L36.9286 6.33837ZM42.2565 8.25035C42.2565 7.0385 41.2806 6.05273 40.0809 6.05273C38.8812 6.05273 37.9023 7.0385 37.9023 8.25035C37.9023 9.46221 38.8782 10.448 40.0809 10.448C40.5017 10.448 40.8956 10.3244 41.2299 10.1164C41.3045 10.3214 41.4985 10.4661 41.7283 10.4661C42.0207 10.4661 42.2595 10.2249 42.2595 9.92947V8.25035H42.2565ZM40.0809 9.3778C39.4661 9.3778 38.9648 8.87135 38.9648 8.25035C38.9648 7.62935 39.4661 7.12291 40.0809 7.12291C40.6957 7.12291 41.1971 7.62935 41.1971 8.25035C41.1971 8.87135 40.6957 9.3778 40.0809 9.3778Z" fill="white"/>
<defs>
<linearGradient id="paint0_linear_3463_7808" x1="2.6345" y1="26.0303" x2="192.59" y2="26.0303" gradientUnits="userSpaceOnUse">
<stop stop-color="#F15822"/>
<stop offset="0.7" stop-color="#F5B130"/>
<stop offset="1" stop-color="#F7DA37"/>
</linearGradient>
<linearGradient id="paint1_linear_3463_7808" x1="36.5095" y1="9.38888" x2="52.3424" y2="-2.40652" gradientUnits="userSpaceOnUse">
<stop stop-color="#F15722"/>
<stop offset="1" stop-color="#F7DA37"/>
</linearGradient>
<linearGradient id="paint2_linear_3463_7808" x1="29.4848" y1="10.3503" x2="55.8775" y2="5.80673" gradientUnits="userSpaceOnUse">
<stop stop-color="#F15722"/>
<stop offset="1" stop-color="#F7DA37"/>
</linearGradient>
</defs>
</svg>
